<svg viewBox="0 0 16 16" fill="none" xmlns="http://www.w3.org/2000/svg" width="16" height="16"><path fill-rule="evenodd" clip-rule="evenodd" d="M4 3.66663C4 3.11434 4.44772 2.66663 5 2.66663H11.6667C12.219 2.66663 12.6667 3.11434 12.6667 3.66663V8.99996C12.6667 9.55224 12.219 9.99996 11.6667 9.99996H8.66667V12H10.3333V12.6666H6.33333V12H8V9.99996H5C4.44772 9.99996 4 9.55224 4 8.99996V3.66663ZM5 3.33329C4.81591 3.33329 4.66667 3.48253 4.66667 3.66663V8.99996C4.66667 9.18405 4.81591 9.33329 5 9.33329H11.6667C11.8508 9.33329 12 9.18405 12 8.99996V3.66663C12 3.48253 11.8508 3.33329 11.6667 3.33329H5Z" fill="currentColor"></path></svg>