<svg viewBox="0 0 16 16" fill="none" xmlns="http://www.w3.org/2000/svg" width="16" height="16"><path d="M7.16671 11.8889H9.50004V11.1111H7.16671V11.8889Z" fill="currentColor"></path><path fill-rule="evenodd" clip-rule="evenodd" d="M11.8334 3.72221C11.8334 3.07788 11.311 2.55554 10.6667 2.55554H6.00004C5.35571 2.55554 4.83337 3.07788 4.83337 3.72221V12.2778C4.83337 12.9221 5.35571 13.4444 6.00004 13.4444H10.6667C11.311 13.4444 11.8334 12.9221 11.8334 12.2778V3.72221ZM10.6667 3.33332C10.8815 3.33332 11.0556 3.50743 11.0556 3.72221V12.2778C11.0556 12.4925 10.8815 12.6667 10.6667 12.6667H6.00004C5.78526 12.6667 5.61115 12.4925 5.61115 12.2778V3.72221C5.61115 3.50743 5.78526 3.33332 6.00004 3.33332L10.6667 3.33332Z" fill="currentColor"></path></svg>