<svg viewBox="0 0 16 16" fill="none" xmlns="http://www.w3.org/2000/svg" width="16" height="16"><path d="M11.9286 8.84515V6.488H11.1429V8.84515H11.9286Z" fill="currentColor"></path><path fill-rule="evenodd" clip-rule="evenodd" d="M2.5 5.30943V10.0237C2.5 10.6746 3.02766 11.2023 3.67857 11.2023L12.3214 11.2023C12.9723 11.2023 13.5 10.6746 13.5 10.0237V5.30943C13.5 4.65852 12.9723 4.13086 12.3214 4.13086H3.67857C3.02766 4.13086 2.5 4.65852 2.5 5.30943ZM3.28571 10.0237L3.28571 5.30943C3.28571 5.09246 3.4616 4.91657 3.67857 4.91657L12.3214 4.91657C12.5384 4.91657 12.7143 5.09246 12.7143 5.30943V10.0237C12.7143 10.2407 12.5384 10.4166 12.3214 10.4166L3.67857 10.4166C3.4616 10.4166 3.28571 10.2407 3.28571 10.0237Z" fill="currentColor"></path></svg>